<svg xmlns="http://www.w3.org/2000/svg" xmlns:xlink="http://www.w3.org/1999/xlink" width="375" height="276" viewBox="0 0 375 276">
  <defs>
    <clipPath id="clip-path">
      <rect id="Rectangle_115" data-name="Rectangle 115" width="375" height="276" transform="translate(192 120)" fill="#b26fdf"/>
    </clipPath>
  </defs>
  <g id="Group_24" data-name="Group 24" transform="translate(0 -406)">
    <rect id="Rectangle_116" data-name="Rectangle 116" width="375" height="276" transform="translate(0 406)" fill="#b26fdf"/>
    <g id="Mask_Group_6" data-name="Mask Group 6" transform="translate(-192 286)" clip-path="url(#clip-path)">
      <path id="Subtraction_5" data-name="Subtraction 5" d="M237.943,119.663-4.047,128.2c.013-1.039.033-1.885.058-2.667A135.455,135.455,0,0,1,34.278,35.727C57.89,11.266,88.7-2.834,121.022-3.974s62.3,10.815,84.407,33.663S239.12,83.544,238.055,117c-.028.879-.066,1.775-.112,2.662Z" transform="translate(379.544 155.701) rotate(120)" fill="#a763da"/>
      <path id="instagram-brands" d="M38.477,19.026A19.1,19.1,0,0,0,19.04,38.489,20.232,20.232,0,0,0,38.966,58.406,19.1,19.1,0,0,0,58.4,38.943,20.232,20.232,0,0,0,38.477,19.026Zm.4,32.491A13.2,13.2,0,0,1,25.926,38.568,12.446,12.446,0,0,1,38.563,25.915,13.187,13.187,0,0,1,51.517,38.864,12.457,12.457,0,0,1,38.88,51.517ZM63.545,18.51a4.451,4.451,0,0,1-4.534,4.54A4.715,4.715,0,0,1,54.363,18.4a4.461,4.461,0,0,1,4.534-4.54A4.727,4.727,0,0,1,63.545,18.51Zm13.093,4.811c-.368-6.155-1.84-11.621-6.4-16.163C65.694,2.618,60.229,1.15,54.076.77,47.734.337,28.737.118,22.4.4c-6.129.221-11.558,1.563-16.008,6s-5.769,9.871-6,16.02C.114,28.761.35,47.765.788,54.11c.368,6.155,1.84,11.621,6.4,16.163S17.2,76.282,23.35,76.662c4.351.3,14.657.493,24.086.493,2.36,0,5.6-.038,7.586-.128,6.146-.22,11.576-1.563,16.007-6.018,4.432-4.438,5.769-9.871,6-16.019C77.312,48.653,77.076,29.666,76.638,23.322ZM68.928,61.7a12.524,12.524,0,0,1-7.207,7.216C56.693,70.861,44.7,70.26,39.112,70.2s-17.586.243-22.647-1.8a13.4,13.4,0,0,1-7.388-7.384C7.011,55.93,7.324,43.939,7.255,38.353s-.664-17.6,1.261-22.619a12.524,12.524,0,0,1,7.207-7.216C20.75,6.571,32.747,7.172,38.331,7.236s17.586-.243,22.647,1.8a13.4,13.4,0,0,1,7.388,7.384c2.067,5.078,1.753,17.068,1.823,22.655S70.869,56.683,68.928,61.7Z" transform="translate(394.936 294.068) rotate(9)" fill="#c185e9"/>
      <circle id="Ellipse_13" data-name="Ellipse 13" cx="39" cy="39" r="39" transform="translate(509 112)" fill="#f3819f"/>
    </g>
  </g>
</svg>
